<svg version="1.0" xmlns="http://www.w3.org/2000/svg" width="346.667" height="346.667" viewBox="0 0 260 260"><path d="M154.6 51.9c-1.4 3.2-2.6 6.4-2.6 7.1 0 .7-1 2.9-2.1 4.9-7.3 12.2-12.7 18.8-24.9 30.8-14.3 14-19.5 21.1-24.1 33.3-2.1 5.6-2.4 8.2-2.4 19 0 9.7.4 13.5 1.8 16.8.9 2.4 1.5 4.7 1.2 5.2-.6 1-5.8-.6-9.3-2.8-1.4-.9-5.8-1.7-11.5-2-7.4-.4-10.7 0-16.8 1.7-8.8 2.5-20.4 2.7-26.4.6-2.2-.8-5-1.5-6.2-1.5-2.1 0-2.3.5-2.3 4.5 0 3.3.4 4.5 1.5 4.5.8 0 1.5.6 1.5 1.3 0 2.4 5.3 11.3 10.8 18 6 7.4 17.1 16.3 21.5 17.3 1.6.3 3.1 1.2 3.4 2 .8 2.1 35.8 2.1 36.7-.1.3-.8 1.4-1.5 2.4-1.5s2.6-.6 3.7-1.3c1.7-1.3 1.7-1.5-.6-3-1.3-1-4-1.7-6-1.7-4.3 0-6.9-.8-6.9-2.1 0-.5 4.9-.9 10.9-.9h10.9l4.5-4.5c2.5-2.5 6.6-7.6 9.1-11.3 5.8-8.7 16.6-30.1 16.6-32.8 0-1.1.7-2.9 1.5-4 1.4-1.8 1.4-1.7 1.5 1.3 0 6.6-6.7 23.7-14.9 37.5-5 8.5-6.1 11.8-4.1 11.8 2.2 0 7.7-3.4 15-9.3 26.9-21.8 41.9-50.8 39.6-76.8-1.9-21.8-6.6-34.8-20.2-55.6-3.5-5.4-6.4-10.3-6.4-11 0-.7-.8-1.3-1.9-1.3-1.3 0-2.6 1.8-4.5 5.9zM87.7 199.6c-.3.3-1.2.4-1.9.1-.8-.3-.5-.6.6-.6 1.1-.1 1.7.2 1.3.5z"/><path d="M211 102.1c-6.1 2.7-9 7.2-9 14.4 0 4.6.4 5.9 3.1 9 1.8 2 4.8 4 7.1 4.7 2.2.6 4.2 1.7 4.5 2.4.5 1.3-5.5 13.1-10 19.9-1.5 2.2-3.9 5.8-5.4 8-1.4 2.2-7.4 8.8-13.2 14.6-9.3 9.3-14.1 13.3-21.2 17.5-1.1.6-2.7 1.8-3.7 2.7-1 1-2.6 1.7-3.5 1.7-.9 0-2.4 1.1-3.3 2.4-1 1.6-2.7 2.6-4.7 2.8-1.7.2-3.2.9-3.5 1.5-.6 1.9 6.4 1.7 7.2-.2.3-.9 1.8-1.5 3.4-1.5 1.6 0 3.5-.7 4.2-1.6.8-.8 2.7-2.2 4.4-3 4.5-2.1 7.3-3.9 9.4-5.7 1-1 2.2-1.7 2.7-1.7.9 0 12.5-9.9 17.5-15 11.3-11.6 19.9-23.9 27.5-39.3 2.7-5.3 5.2-9.7 5.7-9.7.4 0 .8-4.3.8-9.5 0-7.5-.3-9.5-1.4-9.5-.8 0-1.7-.7-2-1.5-.6-1.7-8.1-5.5-10.6-5.4-.8 0-3.5.9-6 2zm-71.3 104.5c-1.4 1.4-.6 2.4 1.9 2.4 1.6 0 2.4-.5 2.2-1.3-.5-1.4-3.1-2.1-4.1-1.1z"/></svg>