<?xml version="1.0" standalone="no"?>
<!DOCTYPE svg PUBLIC "-//W3C//DTD SVG 20010904//EN"
 "http://www.w3.org/TR/2001/REC-SVG-20010904/DTD/svg10.dtd">
<svg version="1.0" xmlns="http://www.w3.org/2000/svg"
 width="260.000000pt" height="260.000000pt" viewBox="0 0 260.000000 260.000000"
 preserveAspectRatio="xMidYMid meet">
<metadata>
Created by potrace 1.11, written by Peter Selinger 2001-2013
</metadata>
<g transform="translate(0.000000,260.000000) scale(0.100000,-0.100000)"
fill="#000000" stroke="none">
<path d="M1546 2081 c-14 -32 -26 -64 -26 -71 0 -7 -10 -29 -21 -49 -73 -122
-127 -188 -249 -308 -143 -140 -195 -211 -241 -333 -21 -56 -24 -82 -24 -190
0 -97 4 -135 18 -168 9 -24 15 -47 12 -52 -6 -10 -58 6 -93 28 -14 9 -58 17
-115 20 -74 4 -107 0 -168 -17 -88 -25 -204 -27 -264 -6 -22 8 -50 15 -62 15
-21 0 -23 -5 -23 -45 0 -33 4 -45 15 -45 8 0 15 -6 15 -13 0 -24 53 -113 108
-180 60 -74 171 -163 215 -173 16 -3 31 -12 34 -20 8 -21 358 -21 367 1 3 8
14 15 24 15 10 0 26 6 37 13 17 13 17 15 -6 30 -13 10 -40 17 -60 17 -43 0
-69 8 -69 21 0 5 49 9 109 9 l109 0 45 45 c25 25 66 76 91 113 58 87 166 301
166 328 0 11 7 29 15 40 14 18 14 17 15 -13 0 -66 -67 -237 -149 -375 -50 -85
-61 -118 -41 -118 22 0 77 34 150 93 269 218 419 508 396 768 -19 218 -66 348
-202 556 -35 54 -64 103 -64 110 0 7 -8 13 -19 13 -13 0 -26 -18 -45 -59z
m-669 -1477 c-3 -3 -12 -4 -19 -1 -8 3 -5 6 6 6 11 1 17 -2 13 -5z"/>
<path d="M2110 1579 c-61 -27 -90 -72 -90 -144 0 -46 4 -59 31 -90 18 -20 48
-40 71 -47 22 -6 42 -17 45 -24 5 -13 -55 -131 -100 -199 -15 -22 -39 -58 -54
-80 -14 -22 -74 -88 -132 -146 -93 -93 -141 -133 -212 -175 -11 -6 -27 -18
-37 -27 -10 -10 -26 -17 -35 -17 -9 0 -24 -11 -33 -24 -10 -16 -27 -26 -47
-28 -17 -2 -32 -9 -35 -15 -6 -19 64 -17 72 2 3 9 18 15 34 15 16 0 35 7 42
16 8 8 27 22 44 30 45 21 73 39 94 57 10 10 22 17 27 17 9 0 125 99 175 150
113 116 199 239 275 393 27 53 52 97 57 97 4 0 8 43 8 95 0 75 -3 95 -14 95
-8 0 -17 7 -20 15 -6 17 -81 55 -106 54 -8 0 -35 -9 -60 -20z"/>
<path d="M1397 534 c-14 -14 -6 -24 19 -24 16 0 24 5 22 13 -5 14 -31 21 -41
11z"/>
</g>
</svg>
